<?xml version="1.0" encoding="iso-8859-1"?>
<!-- Generator: Adobe Illustrator 19.0.0, SVG Export Plug-In . SVG Version: 6.00 Build 0)  -->
<svg version="1.1" id="Layer_1" xmlns="http://www.w3.org/2000/svg" xmlns:xlink="http://www.w3.org/1999/xlink" x="0px" y="0px"
	 viewBox="0 0 512 512" style="enable-background:new 0 0 512 512;" xml:space="preserve">
<g>
	<g>
		<g>
			<path d="M469.333,119.467H384c-14.114,0-25.6-11.486-25.6-25.6V51.2c0-4.71-3.823-8.533-8.533-8.533
				c-4.71,0-8.533,3.823-8.533,8.533v42.667c0,23.526,19.14,42.667,42.667,42.667h76.8v332.8c0,14.114-11.486,25.6-25.6,25.6H76.8
				c-14.114,0-25.6-11.486-25.6-25.6V42.667c0-14.114,11.486-25.6,25.6-25.6h269.534L429.167,99.9c3.337,3.337,8.738,3.337,12.066,0
				c3.336-3.336,3.336-8.738,0-12.066L355.9,2.5c-1.596-1.604-3.772-2.5-6.033-2.5H76.8C53.274,0,34.133,19.14,34.133,42.667
				v426.667C34.133,492.86,53.274,512,76.8,512h358.4c23.526,0,42.667-19.14,42.667-42.667V128
				C477.867,123.29,474.044,119.467,469.333,119.467z"/>
			<path d="M147.567,377.967c-14.319,14.319-11.23,27.051-9.233,31.864c4.224,10.223,15.744,17.092,28.646,17.092h0.009
				c9.984,0,19.499-4.011,26.778-11.29c0.256-0.247,0.486-0.521,0.708-0.802c0.794-1.024,19.208-24.798,39.185-56.252
				c12.621-2.492,26.505-4.48,41.395-5.939c20.659,26.479,42.94,39.893,66.278,39.893c11.017,0,19.686-2.773,25.771-8.235
				c5.538-4.975,8.593-12.066,8.593-19.959c0-14.891-11.042-31.539-25.83-31.539l-2.014-0.026c-2.33-0.034-6.161-0.085-11.179-0.085
				c-18.065,0-36.48,0.725-53.598,2.099c-6.4-9.131-12.578-19.627-18.415-31.3c15.667-32.956,21.12-57.574,16.683-75.179
				c-3.635-14.413-14.711-23.364-28.885-23.364c-14.771,0-30.592,10.232-30.592,25.455c0,9.591,9.011,41.446,23.817,73.045
				c-6.204,12.314-13.79,25.702-22.605,39.91C188.279,351.01,162.884,362.65,147.567,377.967z M181.342,403.917
				c-4.011,3.84-9.079,5.939-14.353,5.939c-5.897,0-11.324-2.756-12.894-6.554c-1.971-4.762,2.628-10.351,5.538-13.269
				c10.487-10.487,27.213-19.081,49.869-25.651C195.362,385.527,183.484,401.126,181.342,403.917z M336.674,349.756
				c4.907,0,8.653,0.051,10.931,0.085l2.261,0.026c3.217,0,8.764,7.151,8.764,14.473c0,3.072-0.99,5.521-2.927,7.262
				c-2.816,2.526-7.782,3.866-14.37,3.866c-15.258,0-30.481-8.218-45.372-24.482C309.231,350.174,323.055,349.756,336.674,349.756z
				 M238.933,230.4c0-3.695,6.366-8.388,13.525-8.388c6.426,0,10.581,3.524,12.331,10.479c2.048,8.073,1.647,23.1-9.591,50.304
				C244.446,257.067,238.933,235.315,238.933,230.4z M255.172,322.125c2.816,5.103,5.7,9.958,8.636,14.549
				c-6.272,0.734-12.365,1.562-18.253,2.483C248.986,333.321,252.194,327.637,255.172,322.125z"/>
		</g>
	</g>
</g>
<g>
</g>
<g>
</g>
<g>
</g>
<g>
</g>
<g>
</g>
<g>
</g>
<g>
</g>
<g>
</g>
<g>
</g>
<g>
</g>
<g>
</g>
<g>
</g>
<g>
</g>
<g>
</g>
<g>
</g>
</svg>
