<?xml version="1.0"?>
<svg xmlns="http://www.w3.org/2000/svg" xmlns:xlink="http://www.w3.org/1999/xlink" xmlns:svgjs="http://svgjs.com/svgjs" version="1.1" width="512" height="512" x="0" y="0" viewBox="0 0 394 393" style="enable-background:new 0 0 512 512" xml:space="preserve" class=""><g><path xmlns="http://www.w3.org/2000/svg" d="m344.539062 100.5h-2.609374v-1.640625c-.027344-27.304687-22.152344-49.429687-49.457032-49.460937h-79.679687c-1.015625 0-1.980469-.425782-2.667969-1.175782l-28.910156-31.632812c-9.378906-10.238282-22.621094-16.078125-36.507813-16.089844h-95.25c-27.300781.03125-49.425781 22.15625-49.457031 49.457031v278.210938c.03125 27.304687 22.15625 49.429687 49.457031 49.460937h295.082031c27.304688-.03125 49.429688-22.15625 49.460938-49.460937v-178.210938c-.03125-27.304687-22.15625-49.425781-49.460938-49.457031zm-290.613281 263.128906h-4.46875c-19.574219-.027344-35.433593-15.886718-35.457031-35.460937v-278.210938c.023438-19.574219 15.882812-35.433593 35.457031-35.457031h95.25c9.957031.007812 19.449219 4.195312 26.175781 11.535156l28.910157 31.632813c3.339843 3.648437 8.054687 5.726562 13 5.734375h79.679687c19.570313.023437 35.433594 15.882812 35.457032 35.457031v1.640625h-189.085938c-27.304688.03125-49.429688 22.15625-49.460938 49.457031v178.210938c-.023437 19.574219-15.882812 35.4375-35.457031 35.460937zm326.074219-35.460937c-.023438 19.574219-15.882812 35.4375-35.457031 35.460937h-256.171875c9.601562-9.296875 15.019531-22.09375 15.011718-35.460937v-178.210938c.027344-19.574219 15.886719-35.433593 35.460938-35.457031h205.699219c19.570312.023438 35.433593 15.882812 35.457031 35.457031zm0 0" fill="#c4c5d6" data-original="#000000" style="" class=""/><path xmlns="http://www.w3.org/2000/svg" d="m291.691406 232.0625h-43v-43c0-3.867188-3.132812-7-7-7-3.867187 0-7 3.132812-7 7v43h-43c-3.867187 0-7 3.132812-7 7s3.132813 7 7 7h43v43c0 3.867188 3.132813 7 7 7 3.867188 0 7-3.132812 7-7v-43h43c3.867188 0 7-3.132812 7-7s-3.132812-7-7-7zm0 0" fill="#c4c5d6" data-original="#000000" style="" class=""/></g></svg>
